<?xml version="1.0" encoding="UTF-8"?>
<svg version="1.1" xmlns="http://www.w3.org/2000/svg" width="500" height="500">
<path d="M0 0 C6.90854921 6.06430309 13.0394959 12.72761357 18.48828125 20.140625 C19.02839844 20.85734375 19.56851563 21.5740625 20.125 22.3125 C29.00023103 35.45063727 32.35993251 52.67462414 34.48828125 68.140625 C35.50643921 68.1092041 35.50643921 68.1092041 36.54516602 68.07714844 C59.08008954 67.47443698 78.70203017 69.8598938 95.98828125 85.515625 C108.45542447 97.37167382 116.21198261 112.99007166 116.89233398 130.28051758 C117.03352553 139.45178419 115.41324921 147.4163261 112.48828125 156.140625 C112.18792969 157.06617188 111.88757813 157.99171875 111.578125 158.9453125 C105.82273759 174.94080479 92.50415585 187.70852545 77.48828125 195.140625 C67.14339116 199.42781368 57.14426963 201.2490022 46.01025391 201.67895508 C44.9627125 201.72063466 43.91517109 201.76231424 42.835886 201.80525684 C29.96243658 202.28115726 17.08439655 202.40166885 4.20356321 202.50981116 C2.10682749 202.52759731 0.01010347 202.5464239 -2.08662033 202.56556129 C-9.42685586 202.63239618 -16.76711477 202.69475111 -24.10742188 202.75317383 C-30.91753383 202.80751436 -37.72748794 202.87269071 -44.53745711 202.94251221 C-50.43092589 203.0024142 -56.32443099 203.05444543 -62.21802461 203.10043937 C-65.71896265 203.12791506 -69.21979882 203.15859851 -72.72063065 203.19745445 C-76.60357151 203.24027515 -80.48653035 203.26675688 -84.36962891 203.29174805 C-86.09008171 203.31420341 -86.09008171 203.31420341 -87.84529114 203.33711243 C-97.78910354 203.37673467 -97.78910354 203.37673467 -102.51171875 201.140625 C-106.49098009 196.84435752 -105.85939177 191.83561282 -105.69921875 186.328125 C-105.67891602 185.00264648 -105.67891602 185.00264648 -105.65820312 183.65039062 C-105.62301092 181.48020477 -105.5692086 179.31033467 -105.51171875 177.140625 C-106.33832253 177.14728683 -106.33832253 177.14728683 -107.18162537 177.15408325 C-113.00720581 177.19892622 -118.83273591 177.22873919 -124.65844727 177.25048828 C-126.82187904 177.26043952 -128.98529775 177.27400534 -131.14868164 177.29150391 C-158.36215264 177.50583284 -182.29251149 176.09717524 -203.1640625 156.515625 C-216.54674981 142.97706612 -222.68028197 127.59410186 -222.88671875 108.640625 C-222.68470715 90.0934346 -216.83948795 74.90830757 -203.90234375 61.46875 C-190.2805202 48.92588278 -173.40001929 42.86970232 -155.27734375 41.46484375 C-151.30979821 41.12509249 -151.30979821 41.12509249 -147.51171875 40.140625 C-146.23713299 37.88030788 -146.23713299 37.88030788 -145.32421875 35.015625 C-136.38995596 12.06522517 -119.80001302 -4.17369554 -97.43115234 -14.0546875 C-65.63918296 -27.38289039 -26.55174249 -22.25430759 0 0 Z " fill="#3B4B63" transform="translate(305.51171875,150.859375)"/>
<path d="M0 0 C17.16 0 34.32 0 52 0 C52.33 41.91 52.66 83.82 53 127 C97.55 127.495 97.55 127.495 143 128 C143 144.17 143 160.34 143 177 C148.94 177 154.88 177 161 177 C161 177.33 161 177.66 161 178 C143.57275611 178.86717505 126.16211678 179.22270954 108.71528196 179.36918616 C106.61854624 179.38697231 104.52182222 179.4057989 102.42509842 179.42493629 C95.08486289 179.49177118 87.74460398 179.55412611 80.40429688 179.61254883 C73.59418492 179.66688936 66.78423081 179.73206571 59.97426164 179.80188721 C54.08079286 179.8617892 48.18728776 179.91382043 42.29369414 179.95981437 C38.7927561 179.98729006 35.29191993 180.01797351 31.7910881 180.05682945 C27.90814724 180.09965015 24.0251884 180.12613188 20.14208984 180.15112305 C18.99512131 180.16609329 17.84815277 180.18106354 16.66642761 180.19648743 C6.72261521 180.23610967 6.72261521 180.23610967 2 178 C-1.97926134 173.70373252 -1.34767302 168.69498782 -1.1875 163.1875 C-1.17396484 162.30384766 -1.16042969 161.42019531 -1.14648438 160.50976562 C-1.11129217 158.33957977 -1.05748985 156.16970967 -1 154 C-1.66 153.67 -2.32 153.34 -3 153 C-2.01 153 -1.02 153 0 153 C0 102.51 0 52.02 0 0 Z " fill="#D4DDED" transform="translate(201,174)"/>
<path d="M0 0 C6.90854921 6.06430309 13.0394959 12.72761357 18.48828125 20.140625 C19.02839844 20.85734375 19.56851563 21.5740625 20.125 22.3125 C29.00023103 35.45063727 32.35993251 52.67462414 34.48828125 68.140625 C35.50643921 68.1092041 35.50643921 68.1092041 36.54516602 68.07714844 C59.08008954 67.47443698 78.70203017 69.8598938 95.98828125 85.515625 C108.45401386 97.37033235 116.21587217 112.99188148 116.8918457 130.28173828 C117.06269627 141.21371648 114.7039302 151.03825905 110.48828125 161.140625 C109.2200464 157.48668963 109.73112804 154.64992474 110.42578125 150.890625 C110.62042969 149.81296875 110.81507813 148.7353125 111.015625 147.625 C111.17160156 146.80515625 111.32757813 145.9853125 111.48828125 145.140625 C112.14828125 145.140625 112.80828125 145.140625 113.48828125 145.140625 C113.40641966 141.49393993 113.29367097 137.84880913 113.17578125 134.203125 C113.15322266 133.18154297 113.13066406 132.15996094 113.10742188 131.10742188 C112.77834273 121.7436245 110.2680115 114.46680282 106.2578125 106.0859375 C105.48828125 104.140625 105.48828125 104.140625 105.48828125 101.140625 C104.82828125 101.140625 104.16828125 101.140625 103.48828125 101.140625 C103.05515625 99.903125 103.05515625 99.903125 102.61328125 98.640625 C100.48195657 94.30624837 96.66581619 91.87508752 92.89453125 89.01953125 C90.48828125 87.140625 90.48828125 87.140625 88.11328125 84.515625 C80.74565667 77.84967895 71.05729595 75.00350041 61.48828125 73.140625 C60.54984375 72.95242187 59.61140625 72.76421875 58.64453125 72.5703125 C54.87054861 72.05652773 51.16216586 72.03231285 47.36328125 72.078125 C46.66074219 72.08263672 45.95820313 72.08714844 45.234375 72.09179688 C43.31898319 72.1044696 41.40362757 72.12232551 39.48828125 72.140625 C35.48828125 72.140625 35.48828125 72.140625 32.48828125 71.140625 C30.28934992 67.01073246 29.70137554 62.45390995 28.92578125 57.890625 C28.49108587 53.13104748 28.49108587 53.13104748 26.48828125 49.140625 C26.16427678 47.4381288 25.87925863 45.72814602 25.61328125 44.015625 C24.117809 35.59546603 20.56343964 28.03966844 15.48828125 21.140625 C14.49828125 20.810625 13.50828125 20.480625 12.48828125 20.140625 C11.82161458 18.47395833 11.15494792 16.80729167 10.48828125 15.140625 C9.49828125 14.810625 8.50828125 14.480625 7.48828125 14.140625 C5.80078125 12.703125 5.80078125 12.703125 4.48828125 11.140625 C4.48828125 10.480625 4.48828125 9.820625 4.48828125 9.140625 C3.82828125 9.140625 3.16828125 9.140625 2.48828125 9.140625 C2.48828125 8.150625 2.48828125 7.160625 2.48828125 6.140625 C1.86953125 5.83125 1.25078125 5.521875 0.61328125 5.203125 C-0.76171875 4.515625 -2.13671875 3.828125 -3.51171875 3.140625 C-3.51171875 2.480625 -3.51171875 1.820625 -3.51171875 1.140625 C-4.09179688 1.03621094 -4.671875 0.93179688 -5.26953125 0.82421875 C-7.85208037 0.03685621 -9.30755847 -1.08929156 -11.38671875 -2.796875 C-15.10909826 -5.6928307 -18.64674717 -7.859375 -23.51171875 -7.859375 C-23.96313232 -8.32577393 -24.4145459 -8.79217285 -24.87963867 -9.27270508 C-32.05164229 -16.24515856 -49.33437951 -16.35356283 -58.76171875 -16.359375 C-73.0258865 -16.13700776 -89.87174939 -14.82264255 -101.51171875 -5.859375 C-102.27484375 -5.59125 -103.03796875 -5.323125 -103.82421875 -5.046875 C-107.0358716 -3.62777258 -109.1607225 -1.6911265 -111.7578125 0.63671875 C-113.51171875 2.140625 -113.51171875 2.140625 -116.51171875 4.078125 C-120.34504966 6.71354 -123.37880633 9.71627887 -126.51171875 13.140625 C-127.15238281 13.83800781 -127.79304688 14.53539062 -128.453125 15.25390625 C-133.78659278 21.46410846 -137.27325967 28.16111016 -140.75 35.50390625 C-141.05671631 36.12692627 -141.36343262 36.74994629 -141.67944336 37.3918457 C-142.40822389 38.92316132 -143.04264962 40.49865226 -143.66015625 42.078125 C-145.87412502 44.54431806 -146.54541799 44.51133479 -149.75 44.77734375 C-151.44098963 44.8185226 -153.13273984 44.83450794 -154.82421875 44.828125 C-160.5050746 44.8846293 -165.12907856 45.09893389 -170.51171875 47.140625 C-173.88671875 47.265625 -173.88671875 47.265625 -176.51171875 47.140625 C-177.00671875 48.625625 -177.00671875 48.625625 -177.51171875 50.140625 C-179.47475293 51.21137092 -181.48145985 52.20358243 -183.51171875 53.140625 C-197.96098736 60.95104047 -209.52345943 73.57307057 -215.19921875 88.953125 C-217.4623914 95.04197029 -217.4623914 95.04197029 -218.51171875 97.140625 C-219.17171875 97.140625 -219.83171875 97.140625 -220.51171875 97.140625 C-220.40080929 100.49541081 -220.27043097 103.84917676 -220.13671875 107.203125 C-220.10578125 108.14607422 -220.07484375 109.08902344 -220.04296875 110.06054688 C-219.81775477 115.44691468 -219.16983813 120.01845002 -217.51171875 125.140625 C-217.24336158 126.72095056 -216.99147289 128.30422736 -216.76171875 129.890625 C-215.78006027 135.1449118 -213.49048544 139.24291484 -210.75390625 143.79296875 C-209.51171875 146.140625 -209.51171875 146.140625 -209.51171875 149.140625 C-221.20580584 135.14813202 -223.90473228 117.83935937 -222.51171875 100.140625 C-220.85336886 84.27497666 -214.0742448 70.83495592 -202.32421875 60.015625 C-188.16256342 48.72457548 -173.19604198 42.85389012 -155.27734375 41.46484375 C-151.30979821 41.12509249 -151.30979821 41.12509249 -147.51171875 40.140625 C-146.23713299 37.88030788 -146.23713299 37.88030788 -145.32421875 35.015625 C-136.38995596 12.06522517 -119.80001302 -4.17369554 -97.43115234 -14.0546875 C-65.63918296 -27.38289039 -26.55174249 -22.25430759 0 0 Z " fill="#8994A8" transform="translate(305.51171875,150.859375)"/>
<path d="M0 0 C0.99 0.495 0.99 0.495 2 1 C-1.22404204 3.86157577 -4.37206849 6.5944609 -8 8.9375 C-11.83333091 11.572915 -14.86708758 14.57565387 -18 18 C-18.64066406 18.69738281 -19.28132813 19.39476562 -19.94140625 20.11328125 C-25.27487403 26.32348346 -28.76154092 33.02048516 -32.23828125 40.36328125 C-32.54499756 40.98630127 -32.85171387 41.60932129 -33.16772461 42.2512207 C-33.89650514 43.78253632 -34.53093087 45.35802726 -35.1484375 46.9375 C-37.36240627 49.40369306 -38.03369924 49.37070979 -41.23828125 49.63671875 C-42.92927088 49.6778976 -44.62102109 49.69388294 -46.3125 49.6875 C-51.99335585 49.7440043 -56.61735981 49.95830889 -62 52 C-65.375 52.125 -65.375 52.125 -68 52 C-68.33 52.99 -68.66 53.98 -69 55 C-70.96303418 56.07074592 -72.9697411 57.06295743 -75 58 C-89.44926861 65.81041547 -101.01174068 78.43244557 -106.6875 93.8125 C-108.95067265 99.90134529 -108.95067265 99.90134529 -110 102 C-110.66 102 -111.32 102 -112 102 C-111.88909054 105.35478581 -111.75871222 108.70855176 -111.625 112.0625 C-111.5940625 113.00544922 -111.563125 113.94839844 -111.53125 114.91992188 C-111.30603602 120.30628968 -110.65811938 124.87782502 -109 130 C-108.73164283 131.58032556 -108.47975414 133.16360236 -108.25 134.75 C-107.26834152 140.0042868 -104.97876669 144.10228984 -102.2421875 148.65234375 C-101 151 -101 151 -101 154 C-112.69408709 140.00750702 -115.39301353 122.69873437 -114 105 C-112.34165011 89.13435166 -105.56252605 75.69433092 -93.8125 64.875 C-79.65084467 53.58395048 -64.68432323 47.71326512 -46.765625 46.32421875 C-42.79483697 45.99379971 -42.79483697 45.99379971 -39 45 C-37.55154376 42.47291523 -37.55154376 42.47291523 -36.5 39.375 C-33.61662501 31.96437464 -30.83179755 26.56055115 -25 21 C-23.82244861 19.67626981 -22.65650945 18.34215304 -21.5 17 C-18.78384361 13.86552018 -15.97439917 10.89401 -13 8 C-12.34 7.278125 -11.68 6.55625 -11 5.8125 C-8.75662747 3.77944365 -6.84084548 2.99429592 -4 2 C-3.278125 1.608125 -2.55625 1.21625 -1.8125 0.8125 C-1.214375 0.544375 -0.61625 0.27625 0 0 Z " fill="#6D788B" transform="translate(197,146)"/>
<path d="M0 0 C0.66 0 1.32 0 2 0 C2 0.66 2 1.32 2 2 C2.66 2 3.32 2 4 2 C5.32 8.6 6.64 15.2 8 22 C9.63066406 21.95359375 11.26132812 21.9071875 12.94140625 21.859375 C35.29499641 21.40716444 54.34219428 24.96017525 70.98925781 40.79125977 C83.27311388 53.0645627 90.16629097 68.95902417 90.4375 86.3125 C90.40459436 96.4043188 87.88109268 105.69936349 84 115 C82.73176515 111.34606463 83.24284679 108.50929974 83.9375 104.75 C84.13214844 103.67234375 84.32679688 102.5946875 84.52734375 101.484375 C84.76130859 100.25460937 84.76130859 100.25460937 85 99 C85.66 99 86.32 99 87 99 C86.91813841 95.35331493 86.80538972 91.70818413 86.6875 88.0625 C86.66494141 87.04091797 86.64238281 86.01933594 86.61914062 84.96679688 C86.29006148 75.6029995 83.77973025 68.32617782 79.76953125 59.9453125 C79 58 79 58 79 55 C78.34 55 77.68 55 77 55 C76.71125 54.175 76.4225 53.35 76.125 52.5 C73.99367532 48.16562337 70.17753494 45.73446252 66.40625 42.87890625 C64 41 64 41 61.625 38.375 C54.25737542 31.70905395 44.5690147 28.86287541 35 27 C34.0615625 26.81179687 33.123125 26.62359375 32.15625 26.4296875 C28.38226736 25.91590273 24.67388461 25.89168785 20.875 25.9375 C19.82119141 25.94426758 19.82119141 25.94426758 18.74609375 25.95117188 C16.83070194 25.9638446 14.91534632 25.98170051 13 26 C9 26 9 26 6 25 C3.84172181 20.9232523 3.21727713 16.43875317 2.4375 11.9375 C1.39848167 5.93050151 1.39848167 5.93050151 0 0 Z " fill="#687385" transform="translate(332,197)"/>
<path d="M0 0 C0 0.33 0 0.66 0 1 C-1.12905762 0.98952637 -2.25811523 0.97905273 -3.42138672 0.96826172 C-7.65198536 0.93177681 -11.88257038 0.90899688 -16.11328125 0.89013672 C-17.93654731 0.88014357 -19.75979762 0.86654449 -21.58300781 0.84912109 C-37.45242453 0.00073796 -37.45242453 0.00073796 -52 5 C-54.74869035 6.03652903 -57.52413765 6.96661496 -60.30859375 7.90234375 C-63.00551983 8.8679346 -63.00551983 8.8679346 -65.02734375 10.53125 C-67.34159004 12.25433238 -69.34385734 12.83608214 -72.125 13.5625 C-75.9705709 14.53137187 -75.9705709 14.53137187 -79 17 C-80.2065625 17.4640625 -80.2065625 17.4640625 -81.4375 17.9375 C-83.99902343 18.99959508 -85.12569617 20.03644361 -87 22 C-87.66 22 -88.32 22 -89 22 C-89.26167969 22.57878906 -89.52335938 23.15757812 -89.79296875 23.75390625 C-92.93557611 29.6018002 -98.26212556 34.40569752 -103 39 C-98.13700433 24.30234271 -82.18457341 13.32894042 -69 6.625 C-47.30113707 -3.91186451 -23.28323127 -5.92664069 0 0 Z " fill="#788499" transform="translate(271,133)"/>
<path d="M0 0 C12.69430653 10.25309374 21.91218248 24.50016055 24 41 C25.17088386 54.14992648 23.09403146 65.79268137 18 78 C16.73176515 74.34606463 17.24284679 71.50929974 17.9375 67.75 C18.13214844 66.67234375 18.32679688 65.5946875 18.52734375 64.484375 C18.68332031 63.66453125 18.83929688 62.8446875 19 62 C19.66 62 20.32 62 21 62 C20.91813841 58.35331493 20.80538972 54.70818413 20.6875 51.0625 C20.66494141 50.04091797 20.64238281 49.01933594 20.61914062 47.96679688 C20.29006148 38.6029995 17.77973025 31.32617782 13.76953125 22.9453125 C13 21 13 21 13 18 C12.34 18 11.68 18 11 18 C10.67 16.845 10.34 15.69 10 14.5 C8.27636126 9.77470747 5.32328201 6.99150914 1.64453125 3.6640625 C0 2 0 2 0 0 Z " fill="#8A929D" transform="translate(398,234)"/>
<path d="M0 0 C3.04273876 0.14436854 6.07935221 0.14015248 9.125 0.125 C9.91003906 0.12886719 10.69507813 0.13273437 11.50390625 0.13671875 C15.48299085 0.13000866 19.10792995 -0.08083955 23 -1 C25.75 -1.125 25.75 -1.125 28 -1 C28.495 -0.505 28.495 -0.505 29 0 C30.93306498 0.09396057 32.86958838 0.11743517 34.80493164 0.11352539 C36.04614273 0.11344986 37.28735382 0.11337433 38.56617737 0.11329651 C39.9308374 0.10818911 41.29549702 0.1029731 42.66015625 0.09765625 C44.04878183 0.095792 45.43740807 0.09436813 46.82603455 0.09336853 C50.48721115 0.08954387 54.1483483 0.07971403 57.80950928 0.06866455 C61.54292263 0.05844932 65.27634234 0.05387067 69.00976562 0.04882812 C76.33986177 0.03809171 83.66992536 0.02101591 91 0 C91 0.33 91 0.66 91 1 C84.83144766 2.09182075 78.81107463 2.1347478 72.55688477 2.11352539 C70.85823021 2.11374443 70.85823021 2.11374443 69.1252594 2.1139679 C65.39728859 2.11327349 61.66936829 2.10550316 57.94140625 2.09765625 C55.35066251 2.0957904 52.75991841 2.09436728 50.16917419 2.09336853 C44.05660186 2.08994577 37.94405024 2.08207125 31.83148569 2.07201904 C24.86894322 2.06081901 17.90639987 2.05533767 10.94385064 2.05032361 C-3.37077589 2.03988752 -17.6853873 2.02231239 -32 2 C-31.67 1.34 -31.34 0.68 -31 0 C-29.15535156 0.01740234 -29.15535156 0.01740234 -27.2734375 0.03515625 C-25.64062653 0.04454022 -24.0078139 0.05363977 -22.375 0.0625 C-21.56675781 0.07087891 -20.75851563 0.07925781 -19.92578125 0.08789062 C-16.4595067 0.10198117 -13.2728557 0.04908694 -9.8515625 -0.56640625 C-6.35557875 -1.09798734 -3.49130908 -0.53882783 0 0 Z " fill="#C9D1E2" transform="translate(238,350)"/>
<path d="M0 0 C0.33 0 0.66 0 1 0 C1.15379667 20.04452258 1.30183277 40.08907974 1.4429636 60.1336956 C1.50862446 69.4402272 1.5761883 78.7467378 1.64819336 88.05322266 C1.71092976 96.16237324 1.77013511 104.27154049 1.82505554 112.38074791 C1.85427446 116.67664601 1.88529182 120.97251451 1.92053413 125.26836777 C1.95362049 129.308211 1.98200083 133.34805943 2.00670624 137.38796234 C2.01663493 138.87391305 2.02831174 140.35985322 2.04183006 141.8457756 C2.0599725 143.8681658 2.07132674 145.89061356 2.08229065 147.91305542 C2.09058679 149.04686079 2.09888292 150.18066616 2.10743046 151.34882927 C2 154 2 154 1 156 C0.01 155.67 -0.98 155.34 -2 155 C-2 154.34 -2 153.68 -2 153 C-2.66 152.67 -3.32 152.34 -4 152 C-2.68 152 -1.36 152 0 152 C0 101.84 0 51.68 0 0 Z " fill="#CCD4DE" transform="translate(202,175)"/>
<path d="M0 0 C0.66 0.33 1.32 0.66 2 1 C-1.22404204 3.86157577 -4.37206849 6.5944609 -8 8.9375 C-15.34050203 13.98409514 -20.56267919 21.04342779 -26 28 C-27.61994232 30.06583554 -29.24778482 32.04164186 -31 34 C-31.66 34 -32.32 34 -33 34 C-33.33 35.32 -33.66 36.64 -34 38 C-35 35 -35 35 -34.1796875 32.9140625 C-31.53492949 28.27385832 -28.94338132 24.66171122 -25 21 C-23.82126776 19.6773212 -22.65547085 18.34304728 -21.5 17 C-18.78384361 13.86552018 -15.97439917 10.89401 -13 8 C-12.34 7.278125 -11.68 6.55625 -11 5.8125 C-8.75662747 3.77944365 -6.84084548 2.99429592 -4 2 C-2.9171875 1.4121875 -2.9171875 1.4121875 -1.8125 0.8125 C-1.214375 0.544375 -0.61625 0.27625 0 0 Z " fill="#6C788F" transform="translate(197,146)"/>
<path d="M0 0 C0.33 0 0.66 0 1 0 C1.24766149 4.62301442 1.30848725 7.25139351 -0.4921875 11.62109375 C-2.44938252 16.59493079 -2.40685114 21.27506192 -2.3125 26.5625 C-2.31572266 27.46935547 -2.31894531 28.37621094 -2.32226562 29.31054688 C-2.28032132 34.56883697 -1.64620138 38.96124673 0 44 C0.26835717 45.58032556 0.52024586 47.16360236 0.75 48.75 C1.73165848 54.0042868 4.02123331 58.10228984 6.7578125 62.65234375 C8 65 8 65 8 68 C-3.6324743 54.08122945 -6.51212003 36.6454652 -5 19 C-4.1694524 12.52496844 -3.25741906 5.73589008 0 0 Z " fill="#949BA6" transform="translate(88,232)"/>
<path d="M0 0 C0 0.33 0 0.66 0 1 C-1.11858398 0.99476318 -2.23716797 0.98952637 -3.38964844 0.98413086 C-7.59422994 0.96584288 -11.79880802 0.95448223 -16.00341797 0.94506836 C-17.81299432 0.94008197 -19.62256674 0.93329046 -21.43212891 0.92456055 C-33.72954663 0.86677832 -45.82548834 1.06314587 -58 3 C-54.95501081 0.97000721 -52.83154934 0.29811258 -49.3125 -0.5625 C-48.31863281 -0.81128906 -47.32476562 -1.06007812 -46.30078125 -1.31640625 C-30.91688125 -4.50242104 -15.17030702 -3.8615327 0 0 Z " fill="#AAB1BD" transform="translate(271,133)"/>
<path d="M0 0 C0.66 0.33 1.32 0.66 2 1 C-0.46675556 3.53723429 -2.87703885 5.90563447 -5.6875 8.0625 C-7.95481664 9.96214367 -8.93247248 11.28265723 -10 14 C-10.99 14 -11.98 14 -13 14 C-13.24492188 14.55171875 -13.48984375 15.1034375 -13.7421875 15.671875 C-15.25738114 18.47639491 -17.11084126 20.78103123 -19.125 23.25 C-19.84945312 24.14203125 -20.57390625 25.0340625 -21.3203125 25.953125 C-21.87460938 26.62859375 -22.42890625 27.3040625 -23 28 C-23.33 27.34 -23.66 26.68 -24 26 C-19.96293084 14.86747595 -10.03290007 5.74347178 0 0 Z " fill="#A1A7B3" transform="translate(113,204)"/>
<path d="M0 0 C10.8606961 8.45415337 20.38704978 23.29534275 23 37 C22.5703125 39.2578125 22.5703125 39.2578125 22 41 C22 40.34 22 39.68 22 39 C21.34 39 20.68 39 20 39 C19.70609375 37.69289063 19.70609375 37.69289063 19.40625 36.359375 C17.1152853 27.23501558 13.62163736 20.64326464 8 13 C6.86514609 11.34002729 5.73914238 9.67394431 4.625 8 C4.16351563 7.319375 3.70203125 6.63875 3.2265625 5.9375 C2.00703652 4.01111502 0.98213968 2.05606811 0 0 Z " fill="#AFB5C1" transform="translate(312,158)"/>
<path d="M0 0 C0.33 0 0.66 0 1 0 C1 16.17 1 32.34 1 49 C-0.65 49 -2.3 49 -4 49 C-2.125 44.125 -2.125 44.125 -1 43 C-0.94986647 40.87559146 -0.9643656 38.7497012 -1 36.625 C-1.12786157 24.4084078 -0.50356313 12.20337039 0 0 Z " fill="#BBC7D8" transform="translate(342,303)"/>
<path d="M0 0 C0.33 0.66 0.66 1.32 1 2 C2.04957886 1.97643433 2.04957886 1.97643433 3.12036133 1.95239258 C6.35098896 1.8892767 9.58148618 1.8507692 12.8125 1.8125 C13.91271484 1.78736328 15.01292969 1.76222656 16.14648438 1.73632812 C23.57553036 1.67058436 29.95180606 2.64292521 37 5 C33.95594518 5.92981567 31.65412124 6.00235046 28.5078125 5.59765625 C22.63630902 4.9259804 16.77816901 4.66656699 10.875 4.4375 C9.823125 4.39431641 8.77125 4.35113281 7.6875 4.30664062 C5.12509373 4.20181491 2.56261201 4.09964645 0 4 C0 2.68 0 1.36 0 0 Z " fill="#8D94A1" transform="translate(339,217)"/>
<path d="M0 0 C8.45430665 0.990981 16.05451408 8.40423808 21.1875 14.8125 C23.21313404 17.51827393 24.37865449 19.66868972 25 23 C24.34 23 23.68 23 23 23 C22.731875 22.195625 22.46375 21.39125 22.1875 20.5625 C21.795625 19.716875 21.40375 18.87125 21 18 C20.01 17.67 19.02 17.34 18 17 C16.3125 15.5625 16.3125 15.5625 15 14 C15 13.34 15 12.68 15 12 C14.34 12 13.68 12 13 12 C13 11.01 13 10.02 13 9 C12.38125 8.690625 11.7625 8.38125 11.125 8.0625 C9.75 7.375 8.375 6.6875 7 6 C7 5.34 7 4.68 7 4 C6.401875 3.896875 5.80375 3.79375 5.1875 3.6875 C2.71756736 2.91123545 1.67748765 1.92911079 0 0 Z " fill="#758297" transform="translate(295,148)"/>
<path d="M0 0 C0.66 0 1.32 0 2 0 C2 0.66 2 1.32 2 2 C2.66 2 3.32 2 4 2 C4.50690584 4.06081361 5.00524619 6.12373526 5.5 8.1875 C5.91765625 9.91033203 5.91765625 9.91033203 6.34375 11.66796875 C6.91495385 14.56818829 7.13283779 17.06096385 7 20 C6.01 20 5.02 20 4 20 C3.79503906 18.89140625 3.59007812 17.7828125 3.37890625 16.640625 C3.10683538 15.17707133 2.83469638 13.71353033 2.5625 12.25 C2.42779297 11.52039063 2.29308594 10.79078125 2.15429688 10.0390625 C1.52540733 6.66453325 0.85677827 3.32365306 0 0 Z " fill="#778192" transform="translate(332,197)"/>
<path d="M0 0 C0.33 0 0.66 0 1 0 C1.82555811 23.99516389 1.82555811 23.99516389 -3 33 C-4.26823485 29.34606463 -3.75715321 26.50929974 -3.0625 22.75 C-2.86785156 21.67234375 -2.67320312 20.5946875 -2.47265625 19.484375 C-2.31667969 18.66453125 -2.16070312 17.8446875 -2 17 C-1.34 17 -0.68 17 0 17 C0 11.39 0 5.78 0 0 Z " fill="#6B7381" transform="translate(419,279)"/>
<path d="M0 0 C0.66 0.33 1.32 0.66 2 1 C0.54712339 2.33927721 -0.91247259 3.67126847 -2.375 5 C-3.18710938 5.7425 -3.99921875 6.485 -4.8359375 7.25 C-7 9 -7 9 -9 9 C-9.26167969 9.57878906 -9.52335938 10.15757812 -9.79296875 10.75390625 C-12.93557611 16.6018002 -18.26212556 21.40569752 -23 26 C-21.53206799 21.50445823 -19.03757911 18.22986174 -16 14.6875 C-15.51813232 14.1200708 -15.03626465 13.5526416 -14.53979492 12.96801758 C-10.19739389 7.98392427 -5.37126072 3.8565885 0 0 Z " fill="#B8BDC8" transform="translate(191,146)"/>
<path d="M0 0 C0.33 0 0.66 0 1 0 C1.16744386 5.09014139 1.32802081 10.18043494 1.48217773 15.27099609 C1.5356173 17.00347759 1.59094818 18.7359018 1.64819336 20.46826172 C1.73004993 22.95527798 1.80514988 25.4424195 1.87890625 27.9296875 C1.90594131 28.70682098 1.93297638 29.48395447 1.96083069 30.28463745 C2.11387171 35.77225659 2.11387171 35.77225659 1 38 C0.01 37.67 -0.98 37.34 -2 37 C-2 36.34 -2 35.68 -2 35 C-2.66 34.67 -3.32 34.34 -4 34 C-2.68 34 -1.36 34 0 34 C0 22.78 0 11.56 0 0 Z " fill="#B1B9CA" transform="translate(202,293)"/>
<path d="M0 0 C2.475 0.495 2.475 0.495 5 1 C5.05380578 3.79192205 5.09357669 6.5828141 5.125 9.375 C5.15013672 10.56609375 5.15013672 10.56609375 5.17578125 11.78125 C5.19335473 13.85492015 5.10335168 15.92883241 5 18 C4.34 18.66 3.68 19.32 3 20 C2.49803429 17.04198778 1.99834165 14.08362295 1.5 11.125 C1.35691406 10.28324219 1.21382812 9.44148438 1.06640625 8.57421875 C0.93105469 7.76855469 0.79570312 6.96289062 0.65625 6.1328125 C0.53056641 5.38918457 0.40488281 4.64555664 0.27539062 3.87939453 C0 2 0 2 0 0 Z " fill="#CBD0DD" transform="translate(200,330)"/>
<path d="M0 0 C6.85460352 6.48368341 10.50736787 13.74568079 12 23 C11.34 23 10.68 23 10 23 C9.74605469 22.26394531 9.49210937 21.52789062 9.23046875 20.76953125 C8.88628906 19.79371094 8.54210937 18.81789062 8.1875 17.8125 C7.85105469 16.84957031 7.51460938 15.88664063 7.16796875 14.89453125 C6.02104583 12.05215705 4.57818238 9.61824526 3 7 C3 6.34 3 5.68 3 5 C2.01 4.67 1.02 4.34 0 4 C0 2.68 0 1.36 0 0 Z " fill="#697688" transform="translate(320,171)"/>
<path d="M0 0 C0 0.33 0 0.66 0 1 C-1.41152344 1.07347656 -1.41152344 1.07347656 -2.8515625 1.1484375 C-4.71941406 1.26058594 -4.71941406 1.26058594 -6.625 1.375 C-7.85476562 1.44460937 -9.08453125 1.51421875 -10.3515625 1.5859375 C-13.85258425 1.98326973 -16.6791178 2.88100708 -20 4 C-22.7734375 4.1953125 -22.7734375 4.1953125 -25.375 4.125 C-26.24898437 4.10695312 -27.12296875 4.08890625 -28.0234375 4.0703125 C-28.67570313 4.04710937 -29.32796875 4.02390625 -30 4 C-30 3.67 -30 3.34 -30 3 C-19.93061665 -0.31697334 -10.45861049 -0.31375831 0 0 Z " fill="#5E6B80" transform="translate(159,195)"/>
<path d="M0 0 C-1.07378906 0.39832031 -2.14757812 0.79664063 -3.25390625 1.20703125 C-4.69013758 1.74209782 -6.12633362 2.27725914 -7.5625 2.8125 C-8.26697266 3.07353516 -8.97144531 3.33457031 -9.69726562 3.60351562 C-13.15306253 4.89346747 -16.54493964 6.23230236 -19.90234375 7.76171875 C-20.92457031 8.17035156 -21.94679688 8.57898438 -23 9 C-23.66 8.67 -24.32 8.34 -25 8 C-5.99060354 -1.93892302 -5.99060354 -1.93892302 0 0 Z " fill="#9AA1B0" transform="translate(140,195)"/>
<path d="M0 0 C-2.64738916 1.4606285 -3.89448334 2 -7 2 C-7.33 2.99 -7.66 3.98 -8 5 C-10.21484375 6.203125 -10.21484375 6.203125 -12.9375 7.25 C-13.83339844 7.60578125 -14.72929687 7.9615625 -15.65234375 8.328125 C-18 9 -18 9 -20 8 C-18.10673459 6.87068379 -16.2102736 5.74672384 -14.3125 4.625 C-13.25675781 3.99851563 -12.20101562 3.37203125 -11.11328125 2.7265625 C-3.87046632 -1.29015544 -3.87046632 -1.29015544 0 0 Z " fill="#B2BBC8" transform="translate(213,137)"/>
<path d="M0 0 C6.625 0.75 6.625 0.75 10 3 C10 3.99 10 4.98 10 6 C12.475 6.99 12.475 6.99 15 8 C14.01 8.33 13.02 8.66 12 9 C9.84375 7.890625 9.84375 7.890625 7.5 6.25 C6.7265625 5.71890625 5.953125 5.1878125 5.15625 4.640625 C3.26326652 3.20031148 1.62580387 1.73002206 0 0 Z " fill="#909CAB" transform="translate(282,139)"/>
<path d="M0 0 C0.33 0 0.66 0 1 0 C1.33266291 6.20970773 0.45029331 10.28264895 -2 16 C-2.66 16 -3.32 16 -4 16 C-3.47606294 10.13190493 -2.23891142 5.45126259 0 0 Z " fill="#A3A8B7" transform="translate(88,232)"/>
<path d="M0 0 C1 3 1 3 -0.22265625 5.5234375 C-3.68895534 10.89583312 -6.75797174 15.29222391 -12 19 C-10.69063102 16.07909997 -9.24380538 14.24380538 -7 12 C-6.67 11.01 -6.34 10.02 -6 9 C-5.34 9 -4.68 9 -4 9 C-3.71125 8.071875 -3.4225 7.14375 -3.125 6.1875 C-2 3 -2 3 0 0 Z " fill="#8F959E" transform="translate(414,312)"/>
<path d="M0 0 C0.66 0.33 1.32 0.66 2 1 C-0.33333333 3.33333333 -2.66666667 5.66666667 -5 8 C-5.99 8 -6.98 8 -8 8 C-6.49776416 3.79373966 -3.71449966 2.26099979 0 0 Z " fill="#8993A0" transform="translate(113,204)"/>
<path d="M0 0 C0.99 0.33 1.98 0.66 3 1 C0.5 2.5 0.5 2.5 -2 4 C-2.825 4.556875 -3.65 5.11375 -4.5 5.6875 C-7.26049176 7.13675817 -8.92984035 7.26315654 -12 7 C-9.31033115 3.6774679 -5.89232979 2.55693192 -2 1 C-1.34 0.67 -0.68 0.34 0 0 Z " fill="#637185" transform="translate(126,199)"/>
<path d="M0 0 C0.66 0 1.32 0 2 0 C3.45184478 4.53701494 4.23509196 8.18061476 4 13 C1.8206856 11.24135754 1.06313581 10.30604 0.48828125 7.51953125 C0.43027344 6.62621094 0.37226562 5.73289062 0.3125 4.8125 C0.24675781 3.91144531 0.18101563 3.01039063 0.11328125 2.08203125 C0.07589844 1.39496094 0.03851563 0.70789063 0 0 Z " fill="#818892" transform="translate(84,269)"/>
<path d="M0 0 C3.0831351 1.19899698 6.06279492 2.47700477 9 4 C9 4.66 9 5.32 9 6 C10.98 6.66 12.96 7.32 15 8 C14.01 8.33 13.02 8.66 12 9 C9.3359375 7.63671875 9.3359375 7.63671875 6.375 5.6875 C5.39273438 5.05199219 4.41046875 4.41648437 3.3984375 3.76171875 C1 2 1 2 0 0 Z " fill="#767D88" transform="translate(109,312)"/>
<path d="M0 0 C0.33 0.66 0.66 1.32 1 2 C0.34 2 -0.32 2 -1 2 C-1.2165625 3.175625 -1.2165625 3.175625 -1.4375 4.375 C-2 7 -2 7 -3 9 C-3.66 9 -4.32 9 -5 9 C-5.33 10.32 -5.66 11.64 -6 13 C-7 10 -7 10 -6.07421875 7.7734375 C-5.61660156 6.98195312 -5.15898437 6.19046875 -4.6875 5.375 C-4.23761719 4.57835937 -3.78773438 3.78171875 -3.32421875 2.9609375 C-2 1 -2 1 0 0 Z " fill="#8C92AD" transform="translate(169,171)"/>
<path d="M0 0 C0 0.99 0 1.98 0 3 C-0.99 3.495 -0.99 3.495 -2 4 C-1.34 2.68 -0.68 1.36 0 0 Z M-4 4 C-3.34 4.33 -2.68 4.66 -2 5 C-4.20979308 7.81939117 -6.40062046 10.53058944 -9 13 C-9 11.68 -9 10.36 -9 9 C-8.34 9 -7.68 9 -7 9 C-6.87625 8.360625 -6.7525 7.72125 -6.625 7.0625 C-6.41875 6.381875 -6.2125 5.70125 -6 5 C-5.34 4.67 -4.68 4.34 -4 4 Z " fill="#64728C" transform="translate(177,164)"/>
<path d="M0 0 C-4.48074195 3.36055646 -7.60550707 3.27429625 -13 3 C-9.54666565 -0.45333435 -4.63654999 -1.85462 0 0 Z " fill="#858FA0" transform="translate(224,135)"/>
<path d="M0 0 C-1.26239712 0.86658615 -2.53527501 1.71792059 -3.8125 2.5625 C-4.87404297 3.27599609 -4.87404297 3.27599609 -5.95703125 4.00390625 C-8 5 -8 5 -11 4 C-10.67 3.34 -10.34 2.68 -10 2 C-8.68 2 -7.36 2 -6 2 C-6 1.34 -6 0.68 -6 0 C-3 -1 -3 -1 0 0 Z " fill="#5F6974" transform="translate(391,341)"/>
<path d="M0 0 C3.64566574 2.43044383 3.9977335 3.82388959 5 8 C4.625 10.375 4.625 10.375 4 12 C4 11.34 4 10.68 4 10 C3.34 10 2.68 10 2 10 C1.34 6.7 0.68 3.4 0 0 Z " fill="#8A97AB" transform="translate(330,187)"/>
<path d="M0 0 C0.33 1.32 0.66 2.64 1 4 C-1.97 6.475 -1.97 6.475 -5 9 C-5.33 8.34 -5.66 7.68 -6 7 C-4.02 4.69 -2.04 2.38 0 0 Z " fill="#748196" transform="translate(178,160)"/>
<path d="M0 0 C0.33 0 0.66 0 1 0 C1.33 1.98 1.66 3.96 2 6 C0.35 6 -1.3 6 -3 6 C-1.125 1.125 -1.125 1.125 0 0 Z " fill="#C7D0DE" transform="translate(341,346)"/>
<path d="M0 0 C0.8125 1.6875 0.8125 1.6875 1 4 C-1.4375 6.75 -1.4375 6.75 -4 9 C-2.94124926 5.59687262 -1.99097846 2.98646769 0 0 Z " fill="#B8BFC3" transform="translate(93,223)"/>
<path d="M0 0 C1.98 0 3.96 0 6 0 C6 0.66 6 1.32 6 2 C6.99 2.33 7.98 2.66 9 3 C8.67 3.66 8.34 4.32 8 5 C6 5 6 5 4.5625 3.625 C4.046875 3.08875 3.53125 2.5525 3 2 C2.01 1.34 1.02 0.68 0 0 Z " fill="#727F94" transform="translate(276,138)"/>
</svg>
